<svg width="42" height="42" viewBox="0 0 42 42" fill="none" xmlns="http://www.w3.org/2000/svg">
<path fill-rule="evenodd" clip-rule="evenodd" d="M21 42C32.598 42 42 32.598 42 21C42 9.40202 32.598 0 21 0C9.40202 0 0 9.40202 0 21C0 32.598 9.40202 42 21 42ZM30.7926 10.4124L17.31 9.72682C16.4827 9.68475 15.7778 10.3214 15.7358 11.1487C15.6937 11.9761 16.3303 12.6809 17.1577 12.7229L27.0236 13.2246L10.2782 28.3495L12.289 30.5758L29.0345 15.4509L28.5328 25.3168C28.4907 26.1442 29.1273 26.849 29.9547 26.8911C30.7821 26.9332 31.4869 26.2966 31.5289 25.4692L32.2145 11.9866C32.2566 11.1593 31.62 10.4544 30.7926 10.4124Z" fill="white"/>
</svg>
